<?xml version="1.0" standalone="no"?><!DOCTYPE svg PUBLIC "-//W3C//DTD SVG 1.1//EN" "http://www.w3.org/Graphics/SVG/1.1/DTD/svg11.dtd"><svg class="icon" width="200px" height="200.00px" viewBox="0 0 1024 1024" version="1.1" xmlns="http://www.w3.org/2000/svg"><path d="M672 925.5c-52.11 0-94.5-42.39-94.5-94.5 0-27.32 11.82-53.29 32.43-71.26l0.3-0.26-254.6-473.05-0.31 0.01c-1.1 0.04-2.21 0.06-3.32 0.06-18.73 0-36.83-5.47-52.35-15.82l-0.34-0.23-114.89 114.89 0.1 0.29c3.31 9.75 4.99 19.97 4.99 30.37 0 52.11-42.39 94.5-94.5 94.5S0.5 468.11 0.5 416s42.39-94.5 94.5-94.5c17.2 0 34.04 4.67 48.7 13.5l0.34 0.2 117.11-117.1-0.08-0.28a94.646 94.646 0 0 1-3.57-25.81c0-52.11 42.39-94.5 94.5-94.5s94.5 42.39 94.5 94.5c0 26.56-11.28 52.05-30.94 69.93l-0.29 0.26 255.29 474.32s1.19-0.02 1.44-0.02c20.26 0 39.58 6.32 55.86 18.28l0.35 0.25 112-112-0.12-0.3c-4.37-11.06-6.59-22.74-6.59-34.73 0-52.11 42.39-94.5 94.5-94.5s94.5 42.39 94.5 94.5-42.39 94.5-94.5 94.5c-15.68 0-31.21-3.92-44.91-11.33l-0.33-0.18-118.68 118.68 0.06 0.27A95.354 95.354 0 0 1 766.5 831c0 52.11-42.39 94.5-94.5 94.5zM352 98c51.83 0 94 42.17 94 94 0 26.42-11.22 51.78-30.78 69.56l-0.58 0.53 0.37 0.69 254.96 473.71 0.29 0.53 0.61-0.01 0.42-0.01c0.24 0 0.48-0.01 0.72-0.01 20.15 0 39.37 6.29 55.57 18.18l0.69 0.51 0.61-0.61 111.46-111.46 0.46-0.46-0.24-0.61c-4.35-11-6.55-22.62-6.55-34.55 0-51.83 42.17-94 94-94s94 42.17 94 94-42.17 94-94 94c-15.59 0-31.04-3.9-44.67-11.27l-0.66-0.35-0.53 0.53-118.23 118.23-0.39 0.39 0.12 0.54a94.365 94.365 0 0 1 2.35 20.95c0 51.83-42.17 94-94 94s-94-42.17-94-94c0-27.17 11.76-53.01 32.26-70.88l0.6-0.52-0.38-0.7-254.26-472.45-0.29-0.55-0.62 0.02c-1.27 0.04-2.32 0.06-3.3 0.06-18.63 0-36.64-5.44-52.08-15.74l-0.68-0.45-0.58 0.58-114.39 114.39-0.44 0.44 0.2 0.59c3.29 9.7 4.96 19.87 4.96 30.21 0 51.83-42.17 94-94 94S1 467.83 1 416s42.17-94 94-94c17.11 0 33.86 4.65 48.45 13.43l0.67 0.4 0.55-0.55L261.3 218.66l0.42-0.41-0.16-0.56a94.028 94.028 0 0 1-3.55-25.68C258 140.17 300.17 98 352 98m0-1c-52.47 0-95 42.53-95 95 0 9 1.25 17.7 3.59 25.95L143.96 334.58C129.66 325.96 112.91 321 95 321c-52.47 0-95 42.53-95 95s42.53 95 95 95 95-42.53 95-95c0-10.68-1.76-20.95-5.01-30.53l114.38-114.38C314.44 281.14 332.53 287 352 287c1.12 0 2.23-0.03 3.34-0.06l254.27 472.43C589.63 776.78 577 802.41 577 831c0 52.47 42.53 95 95 95s95-42.53 95-95c0-7.28-0.82-14.36-2.37-21.17L882.86 691.6c13.42 7.27 28.8 11.4 45.14 11.4 52.47 0 95-42.53 95-95s-42.53-95-95-95-95 42.53-95 95c0 12.33 2.35 24.11 6.62 34.92L728.16 754.38C712.43 742.83 693.01 736 672 736c-0.38 0-0.76 0.01-1.14 0.01L415.9 262.3C435 244.92 447 219.86 447 192c0-52.47-42.53-95-95-95z" /></svg>