<?xml version="1.0" standalone="no"?><!DOCTYPE svg PUBLIC "-//W3C//DTD SVG 1.1//EN" "http://www.w3.org/Graphics/SVG/1.1/DTD/svg11.dtd"><svg class="icon" width="200px" height="200.00px" viewBox="0 0 1024 1024" version="1.1" xmlns="http://www.w3.org/2000/svg"><path d="M991.578358 229.293522a25.849036 25.849036 0 0 0-5.449256-3.632838L530.068278 2.61378a25.243563 25.243563 0 0 0-18.164187-1.630119 25.243563 25.243563 0 0 0-18.164187 1.630119L37.67908 225.660684a25.849036 25.849036 0 0 0-5.449256 3.632838A25.616161 25.616161 0 0 0 14.950558 253.512438v507.665745a25.616161 25.616161 0 0 0 8.942369 19.421708 25.569587 25.569587 0 0 0 13.972452 17.745014l455.874525 223.046904a25.523012 25.523012 0 0 0 11.224536 2.608191 26.547658 26.547658 0 0 0 6.939651-0.931497 26.547658 26.547658 0 0 0 6.939651 0.931497 25.383287 25.383287 0 0 0 11.224536-2.608191l456.060824-223.046904a25.569587 25.569587 0 0 0 13.972452-17.745014 25.429862 25.429862 0 0 0 8.942369-19.421708v-507.665745a25.616161 25.616161 0 0 0-17.465565-24.218916z m-479.720842-178.567933L923.15992 251.928893l-411.255829 201.203305-411.348978-201.203305zM66.182881 292.122979l426.95155 208.841579V964.104757L66.182881 755.263179z m478.183873 202.134802l413.258546-202.134802v463.1402l-413.258546 202.134801z" /></svg>